# xmcd
#
# Track frame offsets:
#	150
#	16614
#	30869
#	46230
#	63420
#	80500
#	98344
#	113186
#	128678
#	143874
#	158016
#	174016
#	187554
#	202250
#
# Disc length: 2893 seconds
#
# Revision: 1
# Processed by: cddbd v1.5.2PL0 Copyright (c) Steve Scherf et al.
# Submitted via: audiograbber 1.83.01
#
DISCID=9a0b4b0e
DTITLE=Kastelruther Spatzen - Geschrieben Fuer Die Ewigkeit
DYEAR=2008
DGENRE=A Cappella
TTITLE0=Geschrieben für die Ewigkeit
TTITLE1=An heiligen Wassern
TTITLE2=Wenn Gott Eine Tuere Schliesst
TTITLE3=Der Tag mit Maria
TTITLE4=Wir seh'n nur bis zum Horizont
TTITLE5=Das Angelogebet
TTITLE6=Das Kleine Maedchen Mit Dem Gold'nen Haar
TTITLE7=Das Lied Der Dornenvögel
TTITLE8=Jedes Abendrot ist ein Gebet
TTITLE9=Ave Maria der Heimat
TTITLE10=Im Auftrag des Himmels
TTITLE11=Wir sind alle Kinder Gottes
TTITLE12=Maria und Joseph in unserer Zeit
TTITLE13=Jeder Weg führt igendwann nach Hause
EXTD=0-602517-529342
EXTT0=
EXTT1=
EXTT2=
EXTT3=
EXTT4=
EXTT5=
EXTT6=
EXTT7=
EXTT8=
EXTT9=
EXTT10=
EXTT11=
EXTT12=
EXTT13=
PLAYORDER=
